<svg xmlns="http://www.w3.org/2000/svg" viewBox="0 0 160 160" fill="none" stroke-linecap="round"><defs><linearGradient id="ropeGrad" gradientUnits="userSpaceOnUse" x1="20" y1="14" x2="150" y2="150"><stop offset="0" stop-color="#F4DEA6"></stop><stop offset="0.5" stop-color="#C9A66B"></stop><stop offset="1" stop-color="#8E7136"></stop></linearGradient><filter id="ropeShadow" x="-12%" y="-12%" width="124%" height="124%"><feDropShadow dx="0.4" dy="0.6" stdDeviation="0.5" flood-color="#5a4012" flood-opacity="0.4"></feDropShadow></filter></defs><g filter="url(#ropeShadow)"><line x1="80.00" y1="80.00" x2="80.00" y2="60.00" stroke="url(#ropeGrad)" stroke-width="0.5" opacity="0.7"></line><line x1="80.00" y1="80.00" x2="97.32" y2="70.00" stroke="url(#ropeGrad)" stroke-width="0.5" opacity="0.7"></line><line x1="80.00" y1="80.00" x2="97.32" y2="90.00" stroke="url(#ropeGrad)" stroke-width="0.5" opacity="0.7"></line><line x1="80.00" y1="80.00" x2="80.00" y2="100.00" stroke="url(#ropeGrad)" stroke-width="0.5" opacity="0.7"></line><line x1="80.00" y1="80.00" x2="62.68" y2="90.00" stroke="url(#ropeGrad)" stroke-width="0.5" opacity="0.7"></line><line x1="80.00" y1="80.00" x2="62.68" y2="70.00" stroke="url(#ropeGrad)" stroke-width="0.5" opacity="0.7"></line><line x1="80.00" y1="80.00" x2="80.00" y2="40.00" stroke="url(#ropeGrad)" stroke-width="0.5" opacity="0.7"></line><line x1="80.00" y1="80.00" x2="114.64" y2="60.00" stroke="url(#ropeGrad)" stroke-width="0.5" opacity="0.7"></line><line x1="80.00" y1="80.00" x2="114.64" y2="100.00" stroke="url(#ropeGrad)" stroke-width="0.5" opacity="0.7"></line><line x1="80.00" y1="80.00" x2="80.00" y2="120.00" stroke="url(#ropeGrad)" stroke-width="0.5" opacity="0.7"></line><line x1="80.00" y1="80.00" x2="45.36" y2="100.00" stroke="url(#ropeGrad)" stroke-width="0.5" opacity="0.7"></line><line x1="80.00" y1="80.00" x2="45.36" y2="60.00" stroke="url(#ropeGrad)" stroke-width="0.5" opacity="0.7"></line><line x1="80.00" y1="60.00" x2="97.32" y2="70.00" stroke="url(#ropeGrad)" stroke-width="0.5" opacity="0.7"></line><line x1="80.00" y1="60.00" x2="97.32" y2="90.00" stroke="url(#ropeGrad)" stroke-width="0.5" opacity="0.7"></line><line x1="80.00" y1="60.00" x2="80.00" y2="100.00" stroke="url(#ropeGrad)" stroke-width="0.5" opacity="0.7"></line><line x1="80.00" y1="60.00" x2="62.68" y2="90.00" stroke="url(#ropeGrad)" stroke-width="0.5" opacity="0.7"></line><line x1="80.00" y1="60.00" x2="62.68" y2="70.00" stroke="url(#ropeGrad)" stroke-width="0.5" opacity="0.7"></line><line x1="80.00" y1="60.00" x2="80.00" y2="40.00" stroke="url(#ropeGrad)" stroke-width="0.5" opacity="0.7"></line><line x1="80.00" y1="60.00" x2="114.64" y2="60.00" stroke="url(#ropeGrad)" stroke-width="0.5" opacity="0.7"></line><line x1="80.00" y1="60.00" x2="114.64" y2="100.00" stroke="url(#ropeGrad)" stroke-width="0.5" opacity="0.7"></line><line x1="80.00" y1="60.00" x2="80.00" y2="120.00" stroke="url(#ropeGrad)" stroke-width="0.5" opacity="0.7"></line><line x1="80.00" y1="60.00" x2="45.36" y2="100.00" stroke="url(#ropeGrad)" stroke-width="0.5" opacity="0.7"></line><line x1="80.00" y1="60.00" x2="45.36" y2="60.00" stroke="url(#ropeGrad)" stroke-width="0.5" opacity="0.7"></line><line x1="97.32" y1="70.00" x2="97.32" y2="90.00" stroke="url(#ropeGrad)" stroke-width="0.5" opacity="0.7"></line><line x1="97.32" y1="70.00" x2="80.00" y2="100.00" stroke="url(#ropeGrad)" stroke-width="0.5" opacity="0.7"></line><line x1="97.32" y1="70.00" x2="62.68" y2="90.00" stroke="url(#ropeGrad)" stroke-width="0.5" opacity="0.7"></line><line x1="97.32" y1="70.00" x2="62.68" y2="70.00" stroke="url(#ropeGrad)" stroke-width="0.5" opacity="0.7"></line><line x1="97.32" y1="70.00" x2="80.00" y2="40.00" stroke="url(#ropeGrad)" stroke-width="0.5" opacity="0.7"></line><line x1="97.32" y1="70.00" x2="114.64" y2="60.00" stroke="url(#ropeGrad)" stroke-width="0.5" opacity="0.7"></line><line x1="97.32" y1="70.00" x2="114.64" y2="100.00" stroke="url(#ropeGrad)" stroke-width="0.5" opacity="0.7"></line><line x1="97.32" y1="70.00" x2="80.00" y2="120.00" stroke="url(#ropeGrad)" stroke-width="0.5" opacity="0.7"></line><line x1="97.32" y1="70.00" x2="45.36" y2="100.00" stroke="url(#ropeGrad)" stroke-width="0.5" opacity="0.7"></line><line x1="97.32" y1="70.00" x2="45.36" y2="60.00" stroke="url(#ropeGrad)" stroke-width="0.5" opacity="0.7"></line><line x1="97.32" y1="90.00" x2="80.00" y2="100.00" stroke="url(#ropeGrad)" stroke-width="0.5" opacity="0.7"></line><line x1="97.32" y1="90.00" x2="62.68" y2="90.00" stroke="url(#ropeGrad)" stroke-width="0.5" opacity="0.7"></line><line x1="97.32" y1="90.00" x2="62.68" y2="70.00" stroke="url(#ropeGrad)" stroke-width="0.5" opacity="0.7"></line><line x1="97.32" y1="90.00" x2="80.00" y2="40.00" stroke="url(#ropeGrad)" stroke-width="0.5" opacity="0.7"></line><line x1="97.32" y1="90.00" x2="114.64" y2="60.00" stroke="url(#ropeGrad)" stroke-width="0.5" opacity="0.7"></line><line x1="97.32" y1="90.00" x2="114.64" y2="100.00" stroke="url(#ropeGrad)" stroke-width="0.5" opacity="0.7"></line><line x1="97.32" y1="90.00" x2="80.00" y2="120.00" stroke="url(#ropeGrad)" stroke-width="0.5" opacity="0.7"></line><line x1="97.32" y1="90.00" x2="45.36" y2="100.00" stroke="url(#ropeGrad)" stroke-width="0.5" opacity="0.7"></line><line x1="97.32" y1="90.00" x2="45.36" y2="60.00" stroke="url(#ropeGrad)" stroke-width="0.5" opacity="0.7"></line><line x1="80.00" y1="100.00" x2="62.68" y2="90.00" stroke="url(#ropeGrad)" stroke-width="0.5" opacity="0.7"></line><line x1="80.00" y1="100.00" x2="62.68" y2="70.00" stroke="url(#ropeGrad)" stroke-width="0.5" opacity="0.7"></line><line x1="80.00" y1="100.00" x2="80.00" y2="40.00" stroke="url(#ropeGrad)" stroke-width="0.5" opacity="0.7"></line><line x1="80.00" y1="100.00" x2="114.64" y2="60.00" stroke="url(#ropeGrad)" stroke-width="0.5" opacity="0.7"></line><line x1="80.00" y1="100.00" x2="114.64" y2="100.00" stroke="url(#ropeGrad)" stroke-width="0.5" opacity="0.7"></line><line x1="80.00" y1="100.00" x2="80.00" y2="120.00" stroke="url(#ropeGrad)" stroke-width="0.5" opacity="0.7"></line><line x1="80.00" y1="100.00" x2="45.36" y2="100.00" stroke="url(#ropeGrad)" stroke-width="0.5" opacity="0.7"></line><line x1="80.00" y1="100.00" x2="45.36" y2="60.00" stroke="url(#ropeGrad)" stroke-width="0.5" opacity="0.7"></line><line x1="62.68" y1="90.00" x2="62.68" y2="70.00" stroke="url(#ropeGrad)" stroke-width="0.5" opacity="0.7"></line><line x1="62.68" y1="90.00" x2="80.00" y2="40.00" stroke="url(#ropeGrad)" stroke-width="0.5" opacity="0.7"></line><line x1="62.68" y1="90.00" x2="114.64" y2="60.00" stroke="url(#ropeGrad)" stroke-width="0.5" opacity="0.7"></line><line x1="62.68" y1="90.00" x2="114.64" y2="100.00" stroke="url(#ropeGrad)" stroke-width="0.5" opacity="0.7"></line><line x1="62.68" y1="90.00" x2="80.00" y2="120.00" stroke="url(#ropeGrad)" stroke-width="0.5" opacity="0.7"></line><line x1="62.68" y1="90.00" x2="45.36" y2="100.00" stroke="url(#ropeGrad)" stroke-width="0.5" opacity="0.7"></line><line x1="62.68" y1="90.00" x2="45.36" y2="60.00" stroke="url(#ropeGrad)" stroke-width="0.5" opacity="0.7"></line><line x1="62.68" y1="70.00" x2="80.00" y2="40.00" stroke="url(#ropeGrad)" stroke-width="0.5" opacity="0.7"></line><line x1="62.68" y1="70.00" x2="114.64" y2="60.00" stroke="url(#ropeGrad)" stroke-width="0.5" opacity="0.7"></line><line x1="62.68" y1="70.00" x2="114.64" y2="100.00" stroke="url(#ropeGrad)" stroke-width="0.5" opacity="0.7"></line><line x1="62.68" y1="70.00" x2="80.00" y2="120.00" stroke="url(#ropeGrad)" stroke-width="0.5" opacity="0.7"></line><line x1="62.68" y1="70.00" x2="45.36" y2="100.00" stroke="url(#ropeGrad)" stroke-width="0.5" opacity="0.7"></line><line x1="62.68" y1="70.00" x2="45.36" y2="60.00" stroke="url(#ropeGrad)" stroke-width="0.5" opacity="0.7"></line><line x1="80.00" y1="40.00" x2="114.64" y2="60.00" stroke="url(#ropeGrad)" stroke-width="0.5" opacity="0.7"></line><line x1="80.00" y1="40.00" x2="114.64" y2="100.00" stroke="url(#ropeGrad)" stroke-width="0.5" opacity="0.7"></line><line x1="80.00" y1="40.00" x2="80.00" y2="120.00" stroke="url(#ropeGrad)" stroke-width="0.5" opacity="0.7"></line><line x1="80.00" y1="40.00" x2="45.36" y2="100.00" stroke="url(#ropeGrad)" stroke-width="0.5" opacity="0.7"></line><line x1="80.00" y1="40.00" x2="45.36" y2="60.00" stroke="url(#ropeGrad)" stroke-width="0.5" opacity="0.7"></line><line x1="114.64" y1="60.00" x2="114.64" y2="100.00" stroke="url(#ropeGrad)" stroke-width="0.5" opacity="0.7"></line><line x1="114.64" y1="60.00" x2="80.00" y2="120.00" stroke="url(#ropeGrad)" stroke-width="0.5" opacity="0.7"></line><line x1="114.64" y1="60.00" x2="45.36" y2="100.00" stroke="url(#ropeGrad)" stroke-width="0.5" opacity="0.7"></line><line x1="114.64" y1="60.00" x2="45.36" y2="60.00" stroke="url(#ropeGrad)" stroke-width="0.5" opacity="0.7"></line><line x1="114.64" y1="100.00" x2="80.00" y2="120.00" stroke="url(#ropeGrad)" stroke-width="0.5" opacity="0.7"></line><line x1="114.64" y1="100.00" x2="45.36" y2="100.00" stroke="url(#ropeGrad)" stroke-width="0.5" opacity="0.7"></line><line x1="114.64" y1="100.00" x2="45.36" y2="60.00" stroke="url(#ropeGrad)" stroke-width="0.5" opacity="0.7"></line><line x1="80.00" y1="120.00" x2="45.36" y2="100.00" stroke="url(#ropeGrad)" stroke-width="0.5" opacity="0.7"></line><line x1="80.00" y1="120.00" x2="45.36" y2="60.00" stroke="url(#ropeGrad)" stroke-width="0.5" opacity="0.7"></line><line x1="45.36" y1="100.00" x2="45.36" y2="60.00" stroke="url(#ropeGrad)" stroke-width="0.5" opacity="0.7"></line><circle cx="80.00" cy="80.00" r="8" fill="none" stroke="url(#ropeGrad)" stroke-width="0.6"></circle><circle cx="80.00" cy="60.00" r="8" fill="none" stroke="url(#ropeGrad)" stroke-width="0.6"></circle><circle cx="97.32" cy="70.00" r="8" fill="none" stroke="url(#ropeGrad)" stroke-width="0.6"></circle><circle cx="97.32" cy="90.00" r="8" fill="none" stroke="url(#ropeGrad)" stroke-width="0.6"></circle><circle cx="80.00" cy="100.00" r="8" fill="none" stroke="url(#ropeGrad)" stroke-width="0.6"></circle><circle cx="62.68" cy="90.00" r="8" fill="none" stroke="url(#ropeGrad)" stroke-width="0.6"></circle><circle cx="62.68" cy="70.00" r="8" fill="none" stroke="url(#ropeGrad)" stroke-width="0.6"></circle><circle cx="80.00" cy="40.00" r="8" fill="none" stroke="url(#ropeGrad)" stroke-width="0.6"></circle><circle cx="114.64" cy="60.00" r="8" fill="none" stroke="url(#ropeGrad)" stroke-width="0.6"></circle><circle cx="114.64" cy="100.00" r="8" fill="none" stroke="url(#ropeGrad)" stroke-width="0.6"></circle><circle cx="80.00" cy="120.00" r="8" fill="none" stroke="url(#ropeGrad)" stroke-width="0.6"></circle><circle cx="45.36" cy="100.00" r="8" fill="none" stroke="url(#ropeGrad)" stroke-width="0.6"></circle><circle cx="45.36" cy="60.00" r="8" fill="none" stroke="url(#ropeGrad)" stroke-width="0.6"></circle></g></svg>